<svg id="Layer_1" data-name="Layer 1" xmlns="http://www.w3.org/2000/svg" viewBox="0 0 396.06 356.93"><defs><style>.cls-1{opacity:0.6;}.cls-2{fill:#3988aa;}.cls-3{fill:#0dc68d;}.cls-4{fill:#41cc51;}.cls-5{font-size:123.2px;fill:#003f5b;font-family:BritannicBold, Britannic Bold;}</style></defs><g class="cls-1"><path class="cls-2" d="M265.7,329.15c4.6.57,9.15,1.48,13.71,2.33l1.35.21q1.68.09,3.36.15V119.33S131,293.44,265.7,329.15Z" transform="translate(-181.6 -119.33)"/><path class="cls-2" d="M288.27,332l1.3,0c157-27.92-5.45-212.66-5.45-212.66V331.84C285.5,331.89,286.89,331.93,288.27,332Z" transform="translate(-181.6 -119.33)"/><ellipse class="cls-2" cx="102.52" cy="151.9" rx="71.76" ry="65.43"/></g><g class="cls-1"><path class="cls-3" d="M360.79,329.15c4.6.57,9.15,1.48,13.71,2.33l1.36.21c1.12.06,2.23.11,3.35.15V119.33S226.11,293.44,360.79,329.15Z" transform="translate(-181.6 -119.33)"/><path class="cls-3" d="M383.36,332l1.31,0c157-27.92-5.46-212.66-5.46-212.66V331.84Z" transform="translate(-181.6 -119.33)"/><ellipse class="cls-3" cx="197.61" cy="151.9" rx="71.76" ry="65.43"/></g><g class="cls-1"><path class="cls-4" d="M458.58,329.15c4.6.57,9.15,1.48,13.71,2.33l1.36.21c1.12.06,2.23.11,3.35.15V119.33S323.9,293.44,458.58,329.15Z" transform="translate(-181.6 -119.33)"/><path class="cls-4" d="M481.16,332l1.3,0c157-27.92-5.46-212.66-5.46-212.66V331.84C478.39,331.89,479.77,331.93,481.16,332Z" transform="translate(-181.6 -119.33)"/><ellipse class="cls-4" cx="295.4" cy="151.9" rx="71.76" ry="65.43"/></g><text class="cls-5" transform="translate(0 326.13)">EcoNile</text></svg>